<mxfile host="app.diagrams.net" modified="2021-04-26T14:30:38.534Z" agent="5.0 (X11; Linux x86_64) AppleWebKit/537.36 (KHTML, like Gecko) Chrome/90.0.4430.85 Safari/537.36" etag="vHd0nJaGRN-srdnRzZRL" version="14.6.6" type="github">
  <diagram id="P3qhexZUW72EPZmjGayC" name="Page-1">
    <mxGraphModel dx="808" dy="462" grid="1" gridSize="10" guides="1" tooltips="1" connect="1" arrows="1" fold="1" page="1" pageScale="1" pageWidth="827" pageHeight="1169" math="0" shadow="0">
      <root>
        <mxCell id="0" />
        <mxCell id="1" parent="0" />
        <mxCell id="xKEafoAdDWxGD-558IIG-1" value="" style="rounded=0;whiteSpace=wrap;html=1;" vertex="1" parent="1">
          <mxGeometry x="40" y="40" width="760" height="440" as="geometry" />
        </mxCell>
        <mxCell id="xKEafoAdDWxGD-558IIG-2" value="" style="rounded=1;whiteSpace=wrap;html=1;" vertex="1" parent="1">
          <mxGeometry x="80" y="80" width="690" height="130" as="geometry" />
        </mxCell>
        <mxCell id="xKEafoAdDWxGD-558IIG-3" value="&lt;span style=&quot;font-size: 20px&quot;&gt;Input box&lt;/span&gt;" style="text;html=1;strokeColor=none;fillColor=none;align=center;verticalAlign=middle;whiteSpace=wrap;rounded=0;" vertex="1" parent="1">
          <mxGeometry x="110" y="95" width="620" height="100" as="geometry" />
        </mxCell>
        <mxCell id="xKEafoAdDWxGD-558IIG-4" value="" style="rounded=1;whiteSpace=wrap;html=1;" vertex="1" parent="1">
          <mxGeometry x="80" y="240" width="690" height="190" as="geometry" />
        </mxCell>
        <mxCell id="xKEafoAdDWxGD-558IIG-5" style="edgeStyle=orthogonalEdgeStyle;rounded=0;orthogonalLoop=1;jettySize=auto;html=1;exitX=0.5;exitY=1;exitDx=0;exitDy=0;" edge="1" parent="1" source="xKEafoAdDWxGD-558IIG-2" target="xKEafoAdDWxGD-558IIG-2">
          <mxGeometry relative="1" as="geometry" />
        </mxCell>
        <mxCell id="xKEafoAdDWxGD-558IIG-6" value="&lt;span style=&quot;font-size: 20px&quot;&gt;Posts&lt;/span&gt;" style="text;html=1;strokeColor=none;fillColor=none;align=center;verticalAlign=middle;whiteSpace=wrap;rounded=0;" vertex="1" parent="1">
          <mxGeometry x="110" y="270" width="630" height="130" as="geometry" />
        </mxCell>
      </root>
    </mxGraphModel>
  </diagram>
</mxfile>
